<?xml version="1.0" encoding="UTF-8"?>
<svg version="1.1" xmlns="http://www.w3.org/2000/svg" width="600" height="315">
<path d="M0 0 C0.99 0 1.98 0 3 0 C3 0.66 3 1.32 3 2 C4.32 2 5.64 2 7 2 C7 3.98 7 5.96 7 8 C6.34 8 5.68 8 5 8 C5 8.66 5 9.32 5 10 C5.66 10 6.32 10 7 10 C8.16898166 13.63683183 8.02874952 16.93834538 7.87890625 20.734375 C7.83056641 22.02988281 7.78222656 23.32539063 7.73242188 24.66015625 C7.67590496 26.02344263 7.61926274 27.38672383 7.5625 28.75 C7.50924178 30.12888612 7.45650166 31.50779235 7.40429688 32.88671875 C7.27463047 36.25804533 7.13966346 39.62907518 7 43 C6.67 43 6.34 43 6 43 C5.93941406 43.92683594 5.87882812 44.85367188 5.81640625 45.80859375 C5.73261719 47.00613281 5.64882813 48.20367187 5.5625 49.4375 C5.48128906 50.63246094 5.40007812 51.82742187 5.31640625 53.05859375 C5 56 5 56 4 57 C3.77486899 58.33802186 3.60639193 59.68573023 3.46484375 61.03515625 C3.37783203 61.84404297 3.29082031 62.65292969 3.20117188 63.48632812 C3.11416016 64.33646484 3.02714844 65.18660156 2.9375 66.0625 C2.84662109 66.91650391 2.75574219 67.77050781 2.66210938 68.65039062 C2.43749278 70.76651535 2.21824773 72.88320894 2 75 C1.34 75 0.68 75 0 75 C-0.33 79.95 -0.66 84.9 -1 90 C-1.66 90 -2.32 90 -3 90 C-3.04898437 90.89203125 -3.09796875 91.7840625 -3.1484375 92.703125 C-3.22320312 93.87359375 -3.29796875 95.0440625 -3.375 96.25 C-3.44460938 97.41015625 -3.51421875 98.5703125 -3.5859375 99.765625 C-3.96248308 102.70694334 -4.4774123 104.49949011 -6 107 C-6.66 107 -7.32 107 -8 107 C-8.01417969 107.66386719 -8.02835937 108.32773438 -8.04296875 109.01171875 C-8.29065873 113.5973305 -8.47502245 116.28544722 -11.25 120.0625 C-13.98513919 121.98952988 -15.69800569 122.71697192 -19 123 C-19.33 124.32 -19.66 125.64 -20 127 C-21.65 127.33 -23.3 127.66 -25 128 C-25 128.66 -25 129.32 -25 130 C-26.65 130.33 -28.3 130.66 -30 131 C-30.33 131.99 -30.66 132.98 -31 134 C-31.66 134 -32.32 134 -33 134 C-33 134.66 -33 135.32 -33 136 C-34.65532623 137.01866229 -36.32260138 138.01810813 -38 139 C-38.33 139.66 -38.66 140.32 -39 141 C-41.5625 141.625 -41.5625 141.625 -44 142 C-44.33 142.99 -44.66 143.98 -45 145 C-45.66 145 -46.32 145 -47 145 C-47 145.66 -47 146.32 -47 147 C-48.66666667 148 -50.33333333 149 -52 150 C-52.86625 150.86625 -53.7325 151.7325 -54.625 152.625 C-57 155 -57 155 -60 156 C-60.928125 157.175625 -60.928125 157.175625 -61.875 158.375 C-64.06831855 161.08439351 -65.90366159 162.45183079 -69 164 C-69.66 164 -70.32 164 -71 164 C-71.28875 164.598125 -71.5775 165.19625 -71.875 165.8125 C-73 168 -73 168 -75 171 C-77.625 171.6875 -77.625 171.6875 -80 172 C-80 172.66 -80 173.32 -80 174 C-81.63260714 175.37482707 -83.30225062 176.70647667 -85 178 C-85.66 178.66 -86.32 179.32 -87 180 C-87.99 180.33 -88.98 180.66 -90 181 C-90.33 181.66 -90.66 182.32 -91 183 C-91.66 183 -92.32 183 -93 183 C-93.33 183.99 -93.66 184.98 -94 186 C-94.66 186.33 -95.32 186.66 -96 187 C-96.66 187.99 -97.32 188.98 -98 190 C-100.125 190.6875 -100.125 190.6875 -102 191 C-102 191.66 -102 192.32 -102 193 C-103.6396721 194.36639342 -105.31110128 195.6949419 -107 197 C-107.721875 197.7425 -108.44375 198.485 -109.1875 199.25 C-111 201 -111 201 -113 201 C-113 201.99 -113 202.98 -113 204 C-114.65 204.33 -116.3 204.66 -118 205 C-118.33 205.99 -118.66 206.98 -119 208 C-119.66 208 -120.32 208 -121 208 C-121 208.66 -121 209.32 -121 210 C-122.375 211.625 -122.375 211.625 -124 213 C-124.66 213 -125.32 213 -126 213 C-126.33 213.99 -126.66 214.98 -127 216 C-127.66 216 -128.32 216 -129 216 C-129.33 216.99 -129.66 217.98 -130 219 C-130.66 219 -131.32 219 -132 219 C-132 219.66 -132 220.32 -132 221 C-133.31787285 222.02028865 -134.65210653 223.01971384 -136 224 C-136.33 224.66 -136.66 225.32 -137 226 C-137.99 226.33 -138.98 226.66 -140 227 C-140.515625 227.515625 -141.03125 228.03125 -141.5625 228.5625 C-142.036875 229.036875 -142.51125 229.51125 -143 230 C-143.66 230 -144.32 230 -145 230 C-145.061875 230.5775 -145.12375 231.155 -145.1875 231.75 C-146.33384174 234.92448483 -148.25956842 236.12848575 -151 238 C-151.66 238 -152.32 238 -153 238 C-153.33 238.99 -153.66 239.98 -154 241 C-154.66 241 -155.32 241 -156 241 C-156.061875 241.5775 -156.12375 242.155 -156.1875 242.75 C-157.33788789 245.93568953 -159.28678431 247.02675223 -162 249 C-165.94512758 251.79614405 -165.94512758 251.79614405 -168 256 C-168.99 256 -169.98 256 -171 256 C-171.33 256.99 -171.66 257.98 -172 259 C-172.99 259 -173.98 259 -175 259 C-175.33 259.99 -175.66 260.98 -176 262 C-176.66 262 -177.32 262 -178 262 C-178.33 262.99 -178.66 263.98 -179 265 C-179.66 265 -180.32 265 -181 265 C-181.33 265.99 -181.66 266.98 -182 268 C-182.66 268 -183.32 268 -184 268 C-184 268.66 -184 269.32 -184 270 C-185.65002828 271.35386936 -187.3174387 272.68678142 -189 274 C-189.33 274.66 -189.66 275.32 -190 276 C-190.66 276 -191.32 276 -192 276 C-192.33 276.99 -192.66 277.98 -193 279 C-193.66 279 -194.32 279 -195 279 C-195 279.66 -195 280.32 -195 281 C-196.65002828 282.35386936 -198.3174387 283.68678142 -200 285 C-200.33 285.66 -200.66 286.32 -201 287 C-201.66 287 -202.32 287 -203 287 C-203.33 287.99 -203.66 288.98 -204 290 C-204.66 290 -205.32 290 -206 290 C-206 290.66 -206 291.32 -206 292 C-207.65002828 293.35386936 -209.3174387 294.68678142 -211 296 C-211.33 296.66 -211.66 297.32 -212 298 C-212.66 298 -213.32 298 -214 298 C-214 298.66 -214 299.32 -214 300 C-215.65002828 301.35386936 -217.3174387 302.68678142 -219 304 C-219.33 304.66 -219.66 305.32 -220 306 C-220.99 306 -221.98 306 -223 306 C-223 306.66 -223 307.32 -223 308 C-225.31 308 -227.62 308 -230 308 C-230 307.34 -230 306.68 -230 306 C-230.66 306 -231.32 306 -232 306 C-232.33 305.34 -232.66 304.68 -233 304 C-233.99 303.67 -234.98 303.34 -236 303 C-236 302.34 -236 301.68 -236 301 C-236.598125 300.896875 -237.19625 300.79375 -237.8125 300.6875 C-240.31258286 299.90175967 -241.37535082 299.03081147 -243 297 C-243 296.34 -243 295.68 -243 295 C-243.99 295 -244.98 295 -246 295 C-247.6875 293.625 -247.6875 293.625 -249 292 C-249 291.34 -249 290.68 -249 290 C-249.99 289.67 -250.98 289.34 -252 289 C-252 288.34 -252 287.68 -252 287 C-252.70125 286.979375 -253.4025 286.95875 -254.125 286.9375 C-257.87937242 285.71324812 -259.23224017 283.67747783 -261.5703125 280.59375 C-263.0134095 278.72051898 -263.0134095 278.72051898 -266 278 C-266 277.34 -266 276.68 -266 276 C-267.32 275.67 -268.64 275.34 -270 275 C-270.495 273.02 -270.495 273.02 -271 271 C-271.763125 270.896875 -272.52625 270.79375 -273.3125 270.6875 C-276.18416484 269.95288806 -277.23042094 269.3283935 -279 267 C-279 266.34 -279 265.68 -279 265 C-280.65 264.67 -282.3 264.34 -284 264 C-284.33 262.68 -284.66 261.36 -285 260 C-285.66 260 -286.32 260 -287 260 C-287.33 258.68 -287.66 257.36 -288 256 C-289.32 256 -290.64 256 -292 256 C-292 255.34 -292 254.68 -292 254 C-292.99 254 -293.98 254 -295 254 C-295 252.35 -295 250.7 -295 249 C-294.34 249 -293.68 249 -293 249 C-292.505 245.04 -292.505 245.04 -292 241 C-291.38125 240.9175 -290.7625 240.835 -290.125 240.75 C-287.87900069 240.22123344 -287.87900069 240.22123344 -287.0625 238.3125 C-286.5365625 237.1678125 -286.5365625 237.1678125 -286 236 C-281.47402078 229.92565947 -281.47402078 229.92565947 -277 229 C-275.99083967 227.23408113 -275.99083967 227.23408113 -275 225 C-270.47402078 218.92565947 -270.47402078 218.92565947 -266 218 C-264.94978897 216.15028304 -264.94978897 216.15028304 -264 214 C-262 211.75 -262 211.75 -260 210 C-259.34 210 -258.68 210 -258 210 C-257.67 209.01 -257.34 208.02 -257 207 C-256.34 207 -255.68 207 -255 207 C-254.7525 206.4225 -254.505 205.845 -254.25 205.25 C-252.81700012 202.67060021 -251.21575324 200.93878408 -249 199 C-248.34 199 -247.68 199 -247 199 C-246.67 197.68 -246.34 196.36 -246 195 C-245.34 195 -244.68 195 -244 195 C-243.896875 194.401875 -243.79375 193.80375 -243.6875 193.1875 C-242.90175967 190.68741714 -242.03081147 189.62464918 -240 188 C-239.34 188 -238.68 188 -238 188 C-238 187.34 -238 186.68 -238 186 C-236.34997172 184.64613064 -234.6825613 183.31321858 -233 182 C-232.67 181.34 -232.34 180.68 -232 180 C-231.34 180 -230.68 180 -230 180 C-229.9071875 178.824375 -229.9071875 178.824375 -229.8125 177.625 C-229.544375 176.75875 -229.27625 175.8925 -229 175 C-226.5 173.875 -226.5 173.875 -224 173 C-223.67 172.01 -223.34 171.02 -223 170 C-221.47705589 167.81905913 -219.80173918 165.97751862 -218 164 C-217.34 164 -216.68 164 -216 164 C-216 163.34 -216 162.68 -216 162 C-215.34 162 -214.68 162 -214 162 C-213.814375 161.0409375 -213.814375 161.0409375 -213.625 160.0625 C-213.315625 159.0415625 -213.315625 159.0415625 -213 158 C-212.34 157.67 -211.68 157.34 -211 157 C-210.34 156.01 -209.68 155.02 -209 154 C-207.40899579 151.90415791 -205.75353794 149.97273018 -204 148 C-203.34 148 -202.68 148 -202 148 C-201.67 147.01 -201.34 146.02 -201 145 C-199.33333333 143.33333333 -197.66666667 141.66666667 -196 140 C-195.30419733 138.68163705 -194.62775567 137.35208914 -194 136 C-193.34 135.67 -192.68 135.34 -192 135 C-191.34 134.01 -190.68 133.02 -190 132 C-189.0565602 130.86248116 -188.09709796 129.73812772 -187.125 128.625 C-185.27172838 126.49147755 -183.49340368 124.35268248 -181.75 122.125 C-180 120 -180 120 -178 119 C-177.71125 118.401875 -177.4225 117.80375 -177.125 117.1875 C-175.78469739 114.58135604 -174.19813469 112.92336785 -172 111 C-171.34 111 -170.68 111 -170 111 C-169.71125 110.4225 -169.4225 109.845 -169.125 109.25 C-168.08333333 107.16666667 -167.04166667 105.08333333 -166 103 C-165.34 103 -164.68 103 -164 103 C-164 102.34 -164 101.68 -164 101 C-163.195625 100.38125 -162.39125 99.7625 -161.5625 99.125 C-158.86830764 97.32955574 -158.86830764 97.32955574 -158.55859375 95.0625 C-157.83299005 92.38334786 -156.6620954 91.56745992 -154.5 89.875 C-151.8119616 87.80112319 -151.8119616 87.80112319 -150 85 C-149.34 85 -148.68 85 -148 85 C-147.938125 84.2575 -147.87625 83.515 -147.8125 82.75 C-146.74919061 79.15110668 -145.04777533 78.08140754 -142 76 C-141.34 75.67 -140.68 75.34 -140 75 C-139.8659375 74.38253906 -139.731875 73.76507813 -139.59375 73.12890625 C-138.83623584 70.41281929 -137.71112716 69.63662435 -135.5 67.9375 C-132.83347234 65.8774981 -132.10366566 65.31099698 -131 62 C-130.34 61.67 -129.68 61.34 -129 61 C-127.67304209 59.00956313 -126.36033335 57.00954842 -125.0625 55 C-122.14285714 50.75324675 -122.14285714 50.75324675 -120 49 C-119.34 49 -118.68 49 -118 49 C-117.814375 47.7934375 -117.814375 47.7934375 -117.625 46.5625 C-117.41875 45.716875 -117.2125 44.87125 -117 44 C-116.34 43.67 -115.68 43.34 -115 43 C-114.2575 41.7625 -114.2575 41.7625 -113.5 40.5 C-112 38 -112 38 -110 37 C-109.67 36.01 -109.34 35.02 -109 34 C-108.34 34 -107.68 34 -107 34 C-106.67 32.02 -106.34 30.04 -106 28 C-104.68 28 -103.36 28 -102 28 C-101.67 27.01 -101.34 26.02 -101 25 C-99.35 24.67 -97.7 24.34 -96 24 C-96 23.34 -96 22.68 -96 22 C-92.32589215 20.82428549 -88.83070817 20.92633254 -85 21 C-85 20.34 -85 19.68 -85 19 C-83.35 18.67 -81.7 18.34 -80 18 C-80 17.67 -80 17.34 -80 17 C-76.04 16.67 -72.08 16.34 -68 16 C-68 15.34 -68 14.68 -68 14 C-63.38 13.67 -58.76 13.34 -54 13 C-54 12.34 -54 11.68 -54 11 C-49.71 10.67 -45.42 10.34 -41 10 C-41 9.34 -41 8.68 -41 8 C-38.36 7.67 -35.72 7.34 -33 7 C-33 6.67 -33 6.34 -33 6 C-28.05 5.67 -23.1 5.34 -18 5 C-18 4.34 -18 3.68 -18 3 C-11.95170514 2.10395632 -6.1105424 1.88730557 0 2 C0 1.34 0 0.68 0 0 Z M-66 59 C-66 60.65 -66 62.3 -66 64 C-66.99 63.67 -67.98 63.34 -69 63 C-69 63.66 -69 64.32 -69 65 C-69.66 65 -70.32 65 -71 65 C-73.16666667 66.83333333 -73.16666667 66.83333333 -75 69 C-75 69.66 -75 70.32 -75 71 C-75.66 71 -76.32 71 -77 71 C-77.83830296 73.92075397 -78.13527361 76.52664783 -78.125 79.5625 C-78.12757813 80.32691406 -78.13015625 81.09132813 -78.1328125 81.87890625 C-78.07907384 84.18998495 -78.07907384 84.18998495 -77 87 C-76.34 87 -75.68 87 -75 87 C-74.67 87.99 -74.34 88.98 -74 90 C-73.34 90 -72.68 90 -72 90 C-71.67 90.99 -71.34 91.98 -71 93 C-69.68 93 -68.36 93 -67 93 C-67 93.66 -67 94.32 -67 95 C-63.7 95 -60.4 95 -57 95 C-57 94.34 -57 93.68 -57 93 C-56.236875 92.87625 -55.47375 92.7525 -54.6875 92.625 C-51.79732864 92.11897208 -51.79732864 92.11897208 -49 90 C-49 89.01 -49 88.02 -49 87 C-48.34 87 -47.68 87 -47 87 C-45.97164637 83.91493912 -45.86631566 81.7305728 -45.875 78.5 C-45.87242187 77.5409375 -45.86984375 76.581875 -45.8671875 75.59375 C-45.89007028 72.88428848 -45.89007028 72.88428848 -47 70 C-47.66 70 -48.32 70 -49 70 C-49 69.34 -49 68.68 -49 68 C-49.66 68 -50.32 68 -51 68 C-51.33 67.01 -51.66 66.02 -52 65 C-52.66 65 -53.32 65 -54 65 C-54.33 64.01 -54.66 63.02 -55 62 C-56.65 62 -58.3 62 -60 62 C-60 61.34 -60 60.68 -60 60 C-62.97 59.505 -62.97 59.505 -66 59 Z M-11 88 C-11 89.65 -11 91.3 -11 93 C-10.67 93 -10.34 93 -10 93 C-10 91.35 -10 89.7 -10 88 C-10.33 88 -10.66 88 -11 88 Z M-12 95 C-11 99 -11 99 -11 99 Z M-17 111 C-16 114 -16 114 -16 114 Z M-209 175 C-208 177 -208 177 -208 177 Z M-286 252 C-285 254 -285 254 -285 254 Z " fill="#0099FF" transform="translate(443,2)"/>
<path d="M0 0 C2.64 0 5.28 0 8 0 C8 0.66 8 1.32 8 2 C11.63 2.33 15.26 2.66 19 3 C19 3.66 19 4.32 19 5 C25.93 5.495 25.93 5.495 33 6 C33 6.66 33 7.32 33 8 C38.94 8.33 44.88 8.66 51 9 C51 9.33 51 9.66 51 10 C53.64 10.33 56.28 10.66 59 11 C59 11.66 59 12.32 59 13 C59.556875 12.98839844 60.11375 12.97679687 60.6875 12.96484375 C65.89778343 12.90323567 70.8437951 13.25000656 76 14 C76 14.66 76 15.32 76 16 C77.98567708 15.96744792 79.97135417 15.93489583 81.95703125 15.90234375 C84 16 84 16 87 17 C87 17.66 87 18.32 87 19 C87.66 19 88.32 19 89 19 C89.556875 19.70125 90.11375 20.4025 90.6875 21.125 C93.04501359 24.05596284 95.53047571 26.2817692 98.4140625 28.66796875 C100 30 100 30 102 32 C102.70125 32.66 103.4025 33.32 104.125 34 C106 36 106 36 106 38 C107.65 38.33 109.3 38.66 111 39 C111.495 40.98 111.495 40.98 112 43 C112.66 43 113.32 43 114 43 C114.61875 43.78375 115.2375 44.5675 115.875 45.375 C117.74870266 48.06910132 117.74870266 48.06910132 120.1875 49.0625 C120.785625 49.371875 121.38375 49.68125 122 50 C122.36162029 51.32594105 122.69728039 52.65938457 123 54 C124.485 54.495 124.485 54.495 126 55 C126 55.66 126 56.32 126 57 C126.66 57 127.32 57 128 57 C129.625 58.0625 129.625 58.0625 131 60 C131.1875 63.6875 131.1875 63.6875 131 67 C130.01 67.33 129.02 67.66 128 68 C128 69.65 128 71.3 128 73 C127.34 73 126.68 73 126 73 C125.87625 73.804375 125.7525 74.60875 125.625 75.4375 C125.41875 76.283125 125.2125 77.12875 125 78 C124.01 78.495 124.01 78.495 123 79 C122.505 80.485 122.505 80.485 122 82 C121.34 82 120.68 82 120 82 C120 82.66 120 83.32 120 84 C119.01 84.495 119.01 84.495 118 85 C117.71125 85.598125 117.4225 86.19625 117.125 86.8125 C115.79834536 89.39210624 114.04303069 90.95696931 112 93 C111.67 93.66 111.34 94.32 111 95 C109.73188767 97.53622466 108.12435739 99.14118728 106 101 C105.34 101 104.68 101 104 101 C103.896875 101.763125 103.79375 102.52625 103.6875 103.3125 C102.95288806 106.18416484 102.3283935 107.23042094 100 109 C99.34 109 98.68 109 98 109 C97.690625 109.61875 97.38125 110.2375 97.0625 110.875 C96.375 112.25 95.6875 113.625 95 115 C94.34 115 93.68 115 93 115 C92.7525 115.53625 92.505 116.0725 92.25 116.625 C90.6859619 119.5966724 89.01623538 122.31168617 87 125 C86.01 125 85.02 125 84 125 C84 125.99 84 126.98 84 128 C82.625 129.6875 82.625 129.6875 81 131 C80.34 131 79.68 131 79 131 C79 131.66 79 132.32 79 133 C77.82421875 134.61328125 77.82421875 134.61328125 76 136 C73.51953125 136.29296875 73.51953125 136.29296875 70.8125 136.1875 C69.91144531 136.16042969 69.01039063 136.13335937 68.08203125 136.10546875 C67.39496094 136.07066406 66.70789063 136.03585938 66 136 C66 135.34 66 134.68 66 134 C64.8553125 133.8453125 64.8553125 133.8453125 63.6875 133.6875 C60.81583516 132.95288806 59.76957906 132.3283935 58 130 C58 129.34 58 128.68 58 128 C57.01 128 56.02 128 55 128 C55 127.34 55 126.68 55 126 C54.01 125.67 53.02 125.34 52 125 C52 124.34 52 123.68 52 123 C51.29875 122.979375 50.5975 122.95875 49.875 122.9375 C46.1125182 121.71060376 44.71156696 119.65763767 42.33203125 116.59375 C41.07063984 114.86886375 41.07063984 114.86886375 39 114 C39 113.34 39 112.68 39 112 C38.01 112 37.02 112 36 112 C33.73620691 110.07920587 32.23783136 108.55493984 31.0625 105.8125 C30.711875 105.214375 30.36125 104.61625 30 104 C28.34385343 103.61781233 26.67542976 103.28604898 25 103 C23.1875 101.5625 23.1875 101.5625 22 100 C22 99.34 22 98.68 22 98 C21.34 98 20.68 98 20 98 C19.505 93.05 19.505 93.05 19 88 C18.34 88 17.68 88 17 88 C16.67 85.36 16.34 82.72 16 80 C15.34 80 14.68 80 14 80 C11.84940691 76.46813168 11.6202272 73.33712007 11.375 69.25 C11.26285156 67.49429688 11.26285156 67.49429688 11.1484375 65.703125 C11.07496094 64.36507812 11.07496094 64.36507812 11 63 C10.34 63 9.68 63 9 63 C8.67 57.72 8.34 52.44 8 47 C7.34 47 6.68 47 6 47 C5.87882813 45.98679688 5.75765625 44.97359375 5.6328125 43.9296875 C5.46386217 42.5780849 5.29457331 41.22652458 5.125 39.875 C5.04636719 39.20984375 4.96773437 38.5446875 4.88671875 37.859375 C4.35611974 33.69621356 3.45813446 29.93328708 2 26 C1.67 26 1.34 26 1 26 C0.34 21.05 -0.32 16.1 -1 11 C-1.33 11 -1.66 11 -2 11 C-2 8.03 -2 5.06 -2 2 C-1.34 2 -0.68 2 0 2 C0 1.34 0 0.68 0 0 Z " fill="#0099FF" transform="translate(150,10)"/>
<path d="M0 0 C1.21236328 0.01353516 1.21236328 0.01353516 2.44921875 0.02734375 C3.37154297 0.04474609 3.37154297 0.04474609 4.3125 0.0625 C4.8075 2.0425 4.8075 2.0425 5.3125 4.0625 C5.9725 4.0625 6.6325 4.0625 7.3125 4.0625 C9.00390625 5.70703125 9.00390625 5.70703125 10.875 7.875 C11.80505859 8.93654297 11.80505859 8.93654297 12.75390625 10.01953125 C14.3125 12.0625 14.3125 12.0625 15.3125 15.0625 C16.3025 15.0625 17.2925 15.0625 18.3125 15.0625 C18.8075 17.5375 18.8075 17.5375 19.3125 20.0625 C19.9725 20.0625 20.6325 20.0625 21.3125 20.0625 C21.3125 20.7225 21.3125 21.3825 21.3125 22.0625 C22.7975 22.5575 22.7975 22.5575 24.3125 23.0625 C24.3125 23.7225 24.3125 24.3825 24.3125 25.0625 C24.9725 25.0625 25.6325 25.0625 26.3125 25.0625 C27.8203125 26.5234375 27.8203125 26.5234375 29.4375 28.4375 C29.97632813 29.06398437 30.51515625 29.69046875 31.0703125 30.3359375 C32.3125 32.0625 32.3125 32.0625 32.3125 34.0625 C32.9725 34.0625 33.6325 34.0625 34.3125 34.0625 C36.66119747 36.03540587 37.31352287 37.06556862 38.3125 40.0625 C39.3025 40.495625 39.3025 40.495625 40.3125 40.9375 C42.3125 42.0625 42.3125 42.0625 43.0625 44.6875 C43.145 45.47125 43.2275 46.255 43.3125 47.0625 C43.9725 47.0625 44.6325 47.0625 45.3125 47.0625 C47.6408935 48.83207906 48.26538806 49.87833516 49 52.75 C49.103125 53.513125 49.20625 54.27625 49.3125 55.0625 C51.2925 55.5575 51.2925 55.5575 53.3125 56.0625 C53.8075 58.5375 53.8075 58.5375 54.3125 61.0625 C54.9725 61.0625 55.6325 61.0625 56.3125 61.0625 C59.95148771 63.94336527 60.89124308 67.79872924 62.3125 72.0625 C62.9725 72.0625 63.6325 72.0625 64.3125 72.0625 C67.07333313 74.74445219 68.29357408 76.15405565 68.375 80.0625 C67.06144576 83.77135902 65.24381674 85.48014954 62.3125 88.0625 C61.755625 88.660625 61.19875 89.25875 60.625 89.875 C59.3125 91.0625 59.3125 91.0625 57.3125 91.0625 C56.8175 92.5475 56.8175 92.5475 56.3125 94.0625 C55.6525 94.0625 54.9925 94.0625 54.3125 94.0625 C54.065 94.59875 53.8175 95.135 53.5625 95.6875 C50.8276493 100.88371633 47.99715784 104.51735353 43.3125 108.0625 C42.9825 108.7225 42.6525 109.3825 42.3125 110.0625 C41.6525 110.0625 40.9925 110.0625 40.3125 110.0625 C40.3125 110.7225 40.3125 111.3825 40.3125 112.0625 C39.52875 112.68125 38.745 113.3 37.9375 113.9375 C35.33917438 116.04090645 34.67778182 117.14989879 33.3125 120.0625 C31.375 122.3125 31.375 122.3125 29.3125 124.0625 C28.3225 124.0625 27.3325 124.0625 26.3125 124.0625 C26.3125 124.7225 26.3125 125.3825 26.3125 126.0625 C24.0025 126.0625 21.6925 126.0625 19.3125 126.0625 C19.3125 125.4025 19.3125 124.7425 19.3125 124.0625 C17.6625 124.0625 16.0125 124.0625 14.3125 124.0625 C13.2870454 122.01159081 12.29938348 120.02718629 11.5 117.875 C10.41039337 115.78111846 10.41039337 115.78111846 7.6875 115.3125 C6.90375 115.23 6.12 115.1475 5.3125 115.0625 C5.3125 114.4025 5.3125 113.7425 5.3125 113.0625 C3.8275 112.5675 3.8275 112.5675 2.3125 112.0625 C2.3125 111.4025 2.3125 110.7425 2.3125 110.0625 C1.735 109.98 1.1575 109.8975 0.5625 109.8125 C-2.30485579 108.85671474 -3.60550845 107.21165257 -5.6875 105.0625 C-6.6775 104.7325 -7.6675 104.4025 -8.6875 104.0625 C-8.6875 103.4025 -8.6875 102.7425 -8.6875 102.0625 C-9.6775 101.7325 -10.6675 101.4025 -11.6875 101.0625 C-11.6875 100.4025 -11.6875 99.7425 -11.6875 99.0625 C-13.3375 98.7325 -14.9875 98.4025 -16.6875 98.0625 C-16.6875 97.4025 -16.6875 96.7425 -16.6875 96.0625 C-17.3475 96.0625 -18.0075 96.0625 -18.6875 96.0625 C-19.0175 95.4025 -19.3475 94.7425 -19.6875 94.0625 C-20.265 93.98 -20.8425 93.8975 -21.4375 93.8125 C-24.97640974 92.63286342 -26.49219006 89.96980235 -28.6875 87.0625 C-29.1825 86.0725 -29.1825 86.0725 -29.6875 85.0625 C-30.6775 85.0625 -31.6675 85.0625 -32.6875 85.0625 C-32.6875 84.4025 -32.6875 83.7425 -32.6875 83.0625 C-34.1725 82.5675 -34.1725 82.5675 -35.6875 82.0625 C-35.6875 81.4025 -35.6875 80.7425 -35.6875 80.0625 C-37.1725 79.5675 -37.1725 79.5675 -38.6875 79.0625 C-38.6875 78.4025 -38.6875 77.7425 -38.6875 77.0625 C-39.22375 77.000625 -39.76 76.93875 -40.3125 76.875 C-45.95759018 74.94378494 -49.70755828 70.05912036 -53.29296875 65.515625 C-54.73398744 63.78838257 -54.73398744 63.78838257 -57.6875 63.0625 C-57.6875 62.4025 -57.6875 61.7425 -57.6875 61.0625 C-58.6775 60.7325 -59.6675 60.4025 -60.6875 60.0625 C-60.6875 57.7525 -60.6875 55.4425 -60.6875 53.0625 C-59.2025 52.5675 -59.2025 52.5675 -57.6875 52.0625 C-57.3575 51.4025 -57.0275 50.7425 -56.6875 50.0625 C-55.6875 48.0625 -55.6875 48.0625 -52.6875 47.0625 C-52.3575 46.0725 -52.0275 45.0825 -51.6875 44.0625 C-51.0275 44.0625 -50.3675 44.0625 -49.6875 44.0625 C-49.3575 41.4225 -49.0275 38.7825 -48.6875 36.0625 C-48.0275 36.0625 -47.3675 36.0625 -46.6875 36.0625 C-46.3575 35.0725 -46.0275 34.0825 -45.6875 33.0625 C-45.0275 33.0625 -44.3675 33.0625 -43.6875 33.0625 C-43.6875 32.4025 -43.6875 31.7425 -43.6875 31.0625 C-42.03747172 29.70863064 -40.3700613 28.37571858 -38.6875 27.0625 C-38.3575 26.4025 -38.0275 25.7425 -37.6875 25.0625 C-37.0275 25.0625 -36.3675 25.0625 -35.6875 25.0625 C-35.3575 24.0725 -35.0275 23.0825 -34.6875 22.0625 C-34.0275 22.0625 -33.3675 22.0625 -32.6875 22.0625 C-32.6875 21.4025 -32.6875 20.7425 -32.6875 20.0625 C-31.945 19.629375 -31.2025 19.19625 -30.4375 18.75 C-27.545507 17.1943385 -27.545507 17.1943385 -25.625 14.4375 C-23.42931974 11.74602098 -22.86777077 11.83347473 -19.6875 11.0625 C-18.841875 10.216875 -17.99625 9.37125 -17.125 8.5 C-16.320625 7.695625 -15.51625 6.89125 -14.6875 6.0625 C-13.6975 6.0625 -12.7075 6.0625 -11.6875 6.0625 C-11.3575 5.0725 -11.0275 4.0825 -10.6875 3.0625 C-9.6975 3.0625 -8.7075 3.0625 -7.6875 3.0625 C-7.6875 2.4025 -7.6875 1.7425 -7.6875 1.0625 C-4.80538698 0.10179566 -2.98899956 -0.04331883 0 0 Z M-44.6875 48.0625 C-44.6875 48.7225 -44.6875 49.3825 -44.6875 50.0625 C-45.3475 50.0625 -46.0075 50.0625 -46.6875 50.0625 C-49.99040192 53.51451833 -49.99040192 53.51451833 -50.6875 58.0625 C-49.6975 58.0625 -48.7075 58.0625 -47.6875 58.0625 C-47.3575 58.7225 -47.0275 59.3825 -46.6875 60.0625 C-46.3575 57.0925 -46.0275 54.1225 -45.6875 51.0625 C-45.0275 51.0625 -44.3675 51.0625 -43.6875 51.0625 C-44.0175 50.0725 -44.3475 49.0825 -44.6875 48.0625 Z " fill="#0099FF" transform="translate(385.6875,178.9375)"/>
<path d="M0 0 C2 1 2 1 2 1 Z " fill="#6963D3" transform="translate(208,306)"/>
</svg>
